<?xml version="1.0" encoding="UTF-8" standalone="no"?>
<svg xmlns="http://www.w3.org/2000/svg" version="1.1" viewBox="0 0 330 200">
   <polyline fill="none" points="285,100 305,100" stroke="rgb(193, 0, 0)" stroke-linecap="square" stroke-width="3.0"/>
   <polyline fill="none" points="145,50 125,50 125,100 125,150 145,150" stroke="rgb(1, 188, 157)" stroke-linecap="square" stroke-width="3.0"/>
   <polyline fill="none" points="25,100 125,100" stroke="rgb(1, 188, 157)" stroke-linecap="square" stroke-width="3.0"/>
   <polyline fill="none" points="105,50 105,80 145,80" stroke="rgb(1, 188, 157)" stroke-linecap="square" stroke-width="3.0"/>
   <polyline fill="none" points="105,150 105,120 145,120" stroke="rgb(1, 188, 157)" stroke-linecap="square" stroke-width="3.0"/>
   <polyline fill="none" points="25,50 105,50 105,10 145,10" stroke="rgb(1, 188, 157)" stroke-linecap="square" stroke-width="3.0"/>
   <polyline fill="none" points="25,150 105,150 105,190 145,190" stroke="rgb(1, 188, 157)" stroke-linecap="square" stroke-width="3.0"/>
   <ellipse cx="105.0" cy="50.0" fill="rgb(1, 188, 157)" rx="5.0" ry="5.0" stroke="none" stroke-width="3.0"/>
   <ellipse cx="125.0" cy="100.0" fill="rgb(1, 188, 157)" rx="5.0" ry="5.0" stroke="none" stroke-width="3.0"/>
   <ellipse cx="105.0" cy="150.0" fill="rgb(1, 188, 157)" rx="5.0" ry="5.0" stroke="none" stroke-width="3.0"/>
   <path d="M170.0,125.0 A25.0,25.0 90.0 0,0 170.0,75.0" fill="none" stroke="rgb(0, 0, 0)" stroke-width="2.0"/>
   <polyline fill="none" points="170,75 146,75 146,125 170,125" stroke="rgb(0, 0, 0)" stroke-linecap="square" stroke-width="2.0"/>
   <ellipse cx="195.0" cy="100.0" fill="rgb(193, 0, 0)" rx="2.0" ry="2.0" stroke="none" stroke-width="2.0"/>
   <ellipse cx="145.0" cy="80.0" fill="rgb(1, 188, 157)" rx="2.0" ry="2.0" stroke="none" stroke-width="2.0"/>
   <ellipse cx="145.0" cy="120.0" fill="rgb(1, 188, 157)" rx="2.0" ry="2.0" stroke="none" stroke-width="2.0"/>
   <path d="M170.0,195.0 A25.0,25.0 90.0 0,0 170.0,145.0" fill="none" stroke="rgb(0, 0, 0)" stroke-width="2.0"/>
   <polyline fill="none" points="170,145 146,145 146,195 170,195" stroke="rgb(0, 0, 0)" stroke-linecap="square" stroke-width="2.0"/>
   <ellipse cx="195.0" cy="170.0" fill="rgb(193, 0, 0)" rx="2.0" ry="2.0" stroke="none" stroke-width="2.0"/>
   <ellipse cx="145.0" cy="150.0" fill="rgb(1, 188, 157)" rx="2.0" ry="2.0" stroke="none" stroke-width="2.0"/>
   <ellipse cx="145.0" cy="190.0" fill="rgb(1, 188, 157)" rx="2.0" ry="2.0" stroke="none" stroke-width="2.0"/>
   <polyline fill="none" points="195,30 215,30 215,80 235,80 237,80" stroke="rgb(193, 0, 0)" stroke-linecap="square" stroke-width="3.0"/>
   <polyline fill="none" points="195,100 235,100 241,100" stroke="rgb(193, 0, 0)" stroke-linecap="square" stroke-width="3.0"/>
   <polyline fill="none" points="195,170 215,170 215,120 235,120 237,120" stroke="rgb(193, 0, 0)" stroke-linecap="square" stroke-width="3.0"/>
   <path d=" M285.0,100.0 C265.0,75.0 265.0,75.0 235.0,75.0 C248.0,100.0 248.0,100.0 235.0,125.0 C265.0,125.0 265.0,125.0 285.0,100.0 Z" fill="none" stroke="rgb(0, 0, 0)" stroke-linecap="square" stroke-width="2.0"/>
   <ellipse cx="285.0" cy="100.0" fill="rgb(193, 0, 0)" rx="2.0" ry="2.0" stroke="none" stroke-width="2.0"/>
   <ellipse cx="235.0" cy="80.0" fill="rgb(193, 0, 0)" rx="2.0" ry="2.0" stroke="none" stroke-width="2.0"/>
   <ellipse cx="235.0" cy="100.0" fill="rgb(193, 0, 0)" rx="2.0" ry="2.0" stroke="none" stroke-width="2.0"/>
   <ellipse cx="235.0" cy="120.0" fill="rgb(193, 0, 0)" rx="2.0" ry="2.0" stroke="none" stroke-width="2.0"/>
   <text fill="rgb(0, 0, 0)" font-family="SansSerif" font-size="16" font-weight="bold" x="8.0" y="56.0">A</text>
   <polygon fill="none" points="5,38 22,38 22,40 26,50 22,60 22,63 5,63" stroke="rgb(0, 0, 0)" stroke-linecap="square" stroke-width="2.0"/>
   <ellipse cx="25.0" cy="50.0" fill="rgb(1, 188, 157)" rx="2.0" ry="2.0" stroke="none" stroke-width="2.0"/>
   <text fill="rgb(0, 0, 0)" font-family="SansSerif" font-size="16" font-weight="bold" x="8.0" y="106.0">B</text>
   <polygon fill="none" points="5,88 22,88 22,90 26,100 22,110 22,113 5,113" stroke="rgb(0, 0, 0)" stroke-linecap="square" stroke-width="2.0"/>
   <ellipse cx="25.0" cy="100.0" fill="rgb(1, 188, 157)" rx="2.0" ry="2.0" stroke="none" stroke-width="2.0"/>
   <text fill="rgb(0, 0, 0)" font-family="SansSerif" font-size="16" font-weight="bold" x="8.0" y="156.0">C</text>
   <polygon fill="none" points="5,138 22,138 22,140 26,150 22,160 22,163 5,163" stroke="rgb(0, 0, 0)" stroke-linecap="square" stroke-width="2.0"/>
   <ellipse cx="25.0" cy="150.0" fill="rgb(1, 188, 157)" rx="2.0" ry="2.0" stroke="none" stroke-width="2.0"/>
   <text fill="rgb(0, 0, 0)" font-family="SansSerif" font-size="16" font-weight="bold" x="310.0" y="106.0">S</text>
   <polygon fill="none" points="309,88 324,88 324,113 309,113 309,110 305,100 309,90" stroke="rgb(0, 0, 0)" stroke-linecap="square" stroke-width="2.0"/>
   <ellipse cx="305.0" cy="100.0" fill="rgb(193, 0, 0)" rx="2.0" ry="2.0" stroke="none" stroke-width="2.0"/>
   <path d="M170.0,55.0 A25.0,25.0 90.0 0,0 170.0,5.0" fill="none" stroke="rgb(0, 0, 0)" stroke-width="2.0"/>
   <polyline fill="none" points="170,5 146,5 146,55 170,55" stroke="rgb(0, 0, 0)" stroke-linecap="square" stroke-width="2.0"/>
   <ellipse cx="195.0" cy="30.0" fill="rgb(193, 0, 0)" rx="2.0" ry="2.0" stroke="none" stroke-width="2.0"/>
   <ellipse cx="145.0" cy="10.0" fill="rgb(1, 188, 157)" rx="2.0" ry="2.0" stroke="none" stroke-width="2.0"/>
   <ellipse cx="145.0" cy="50.0" fill="rgb(1, 188, 157)" rx="2.0" ry="2.0" stroke="none" stroke-width="2.0"/>
</svg>
